# xmcd
#
# Track frame offsets:
#	150
#	15185
#	31259
#	47793
#	66265
#	80865
#	99151
#	115366
#	131686
#	149077
#	163822
#
# Disc length: 2362 seconds
# Revision: 0
# Processed by: cddbd v1.5.2PL0 Copyright (c) Steve Scherf et al.
# Submitted via: dBpowerAMP V12.0
#
DISCID=9709380b
DTITLE=Hilde Heltberg - Elske fritt
DYEAR=2009
DGENRE=Pop
TTITLE0=Elske fritt
TTITLE1=Hold om meg
TTITLE2=I rommet mellom oss
TTITLE3=Bli med, vennen
TTITLE4=Noe med deg
TTITLE5=Elske det umulige
TTITLE6=Omtrent som før
TTITLE7=Sveve
TTITLE8=Hva i all verden kom over deg
TTITLE9=Den første høsten
TTITLE10=En liten bit av kjærlighet
EXTD=
EXTT0=
EXTT1=
EXTT2=
EXTT3=
EXTT4=
EXTT5=
EXTT6=
EXTT7=
EXTT8=
EXTT9=
EXTT10=
PLAYORDER=
